# xmcd CD database file
#
# Track frame offsets:
#	187
#	17555
#	35722
#	54057
#	70070
#	90645
#	109715
#	131020
#	153185
#	167310
#	182417
#	206887
#	225910
#	245595
#	267255
#	281900
#	299752
#	317752
#	335115
#
# Disc length: 4631 seconds
#
# Revision: 6
# Processed by: cddbd v1.5.2PL0 Copyright (c) Steve Scherf et al.
# Submitted via: CDex 1.51
#
DISCID=0e121513
DTITLE=ABBA - ABBA GOLD
DYEAR=1992
DGENRE=Pop
TTITLE0=Dancing Queen
TTITLE1=Knowing Me, Knowing You
TTITLE2=Take A Chance On Me
TTITLE3=Mamma Mia
TTITLE4=Lay All Your Love On Me
TTITLE5=Super Trouper
TTITLE6=I Have A Dream
TTITLE7=The Winner Takes It All
TTITLE8=Money, Money, Money
TTITLE9=S.O.S.
TTITLE10=Chiquitita
TTITLE11=Fernando
TTITLE12=Voulez Vous
TTITLE13=Gimme! Gimme! Gimme! (A Man After Midnight)
TTITLE14=Does Your Mother Know
TTITLE15=One Of Us
TTITLE16=The Name Of The Game
TTITLE17=Thank You For The Music
TTITLE18=Waterloo
EXTD=YEAR: 1992
EXTT0=
EXTT1=
EXTT2=
EXTT3=
EXTT4=
EXTT5=
EXTT6=
EXTT7=
EXTT8=
EXTT9=
EXTT10=
EXTT11=
EXTT12=
EXTT13=
EXTT14=
EXTT15=
EXTT16=
EXTT17=
EXTT18=
PLAYORDER=
